HIERARCHY
ROOT Hips
{
	OFFSET -0.001795 -0.223333 0.028219
	CHANNELS 6 Xposition Yposition Zposition Zrotation Yrotation Xrotation 
	JOINT LeftUpLeg
	{
		OFFSET 0.069520 -0.091406 -0.006815
		CHANNELS 3 Zrotation Yrotation Xrotation
		JOINT LeftLeg
		{
			OFFSET 0.034277 -0.375199 -0.004496
			CHANNELS 3 Zrotation Yrotation Xrotation
			JOINT LeftFoot
			{
				OFFSET -0.013596 -0.397961 -0.043693
				CHANNELS 3 Zrotation Yrotation Xrotation
				JOINT LeftToe
				{
					OFFSET 0.026358 -0.055791 0.119288
					CHANNELS 3 Zrotation Yrotation Xrotation
					End Site
					{
						OFFSET 0.000000 0.000000 0.000000
					}
				}
			}
		}
	}
	JOINT RightUpLeg
	{
		OFFSET -0.067670 -0.090522 -0.004320
		CHANNELS 3 Zrotation Yrotation Xrotation
		JOINT RightLeg
		{
			OFFSET -0.038290 -0.382569 -0.008850
			CHANNELS 3 Zrotation Yrotation Xrotation
			JOINT RightFoot
			{
				OFFSET 0.015774 -0.398415 -0.042312
				CHANNELS 3 Zrotation Yrotation Xrotation
				JOINT RightToe
				{
					OFFSET -0.025372 -0.048144 0.123348
					CHANNELS 3 Zrotation Yrotation Xrotation
					End Site
					{
						OFFSET 0.000000 0.000000 0.000000
					}
				}
			}
		}
	}
	JOINT Spine
	{
		OFFSET -0.002533 0.108963 -0.026696
		CHANNELS 3 Zrotation Yrotation Xrotation
		JOINT Spine1
		{
			OFFSET 0.005487 0.135180 0.001092
			CHANNELS 3 Zrotation Yrotation Xrotation
			JOINT Spine2
			{
				OFFSET 0.001457 0.052922 0.025425
				CHANNELS 3 Zrotation Yrotation Xrotation
				JOINT Neck
				{
					OFFSET -0.002778 0.213870 -0.042857
					CHANNELS 3 Zrotation Yrotation Xrotation
					JOINT Head
					{
						OFFSET 0.005152 0.064970 0.051349
						CHANNELS 3 Zrotation Yrotation Xrotation
						End Site
						{
							OFFSET 0.000000 0.000000 0.000000
						}
					}
				}
				JOINT LeftShoulder
				{
					OFFSET 0.078845 0.121749 -0.034090
					CHANNELS 3 Zrotation Yrotation Xrotation
					JOINT LeftArm
					{
						OFFSET 0.090977 0.030469 -0.008868
						CHANNELS 3 Zrotation Yrotation Xrotation
						JOINT LeftForeArm
						{
							OFFSET 0.259612 -0.012772 -0.027456
							CHANNELS 3 Zrotation Yrotation Xrotation
							JOINT LeftHand
							{
								OFFSET 0.249234 0.008986 -0.001171
								CHANNELS 3 Zrotation Yrotation Xrotation
								End Site
								{
									OFFSET 0.000000 0.000000 0.000000
								}
							}
						}
					}
				}
				JOINT RightShoulder
				{
					OFFSET -0.081759 0.118833 -0.038615
					CHANNELS 3 Zrotation Yrotation Xrotation
					JOINT RightArm
					{
						OFFSET -0.096012 0.032551 -0.009143
						CHANNELS 3 Zrotation Yrotation Xrotation
						JOINT RightForeArm
						{
							OFFSET -0.253742 -0.013329 -0.021401
							CHANNELS 3 Zrotation Yrotation Xrotation
							JOINT RightHand
							{
								OFFSET -0.255298 0.007772 -0.005559
								CHANNELS 3 Zrotation Yrotation Xrotation
								End Site
								{
									OFFSET 0.000000 0.000000 0.000000
								}
							}
						}
					}
				}
			}
		}
	}
}
MOTION
Frames: 15
Frame Time: 0.050000
-0.021534 0.956545 -0.028737 -0.143396 1.168795 -1.785385 5.896444 0.127819 4.957872 -5.122770 0.533492 -1.559489 3.664344 10.699387 12.053052 0.000000 0.000000 0.000000 -2.306209 -0.278950 3.895864 2.261482 -0.282147 -1.775811 -4.182773 -13.290348 15.894944 0.000000 0.000000 0.000000 -0.427275 -0.347366 9.250626 1.518049 0.398838 -28.073621 -1.441077 0.187745 30.515330 3.658964 0.456883 -36.244224 0.000000 0.000000 0.000000 -27.765848 2.065631 -3.317805 -43.513546 -8.713549 -4.491402 -11.819527 -26.621031 4.103993 0.000000 0.000000 0.000000 20.559038 -1.157593 -1.459473 53.540769 4.590744 -6.049169 11.679586 31.061528 4.737994 0.000000 0.000000 0.000000 
-0.021389 0.956667 -0.028411 -0.249836 1.127981 -1.680866 5.943265 0.123060 4.926515 -5.028687 0.523876 -1.662377 3.692481 10.744463 12.075360 0.000000 0.000000 0.000000 -2.279805 -0.280480 3.907688 2.399931 -0.298640 -1.978633 -4.132197 -13.223007 16.008334 0.000000 0.000000 0.000000 -0.393821 -0.349333 9.218105 1.421120 0.417716 -28.130729 -1.370531 0.026858 30.491776 3.611449 0.433711 -36.037837 0.000000 0.000000 0.000000 -27.726967 2.089268 -3.260211 -43.542497 -8.933392 -4.439436 -11.800107 -26.645366 4.113762 0.000000 0.000000 0.000000 20.487810 -1.062129 -1.450010 53.501961 4.698860 -5.988353 11.756268 30.897468 4.713237 0.000000 0.000000 0.000000 
-0.021317 0.956953 -0.028187 -0.345900 1.054215 -1.591113 6.136715 0.113608 4.961942 -5.204343 0.538375 -1.858259 3.697729 10.769675 12.192404 0.000000 0.000000 0.000000 -2.292663 -0.280381 3.927010 2.589668 -0.319144 -2.185387 -4.053793 -13.119183 16.165323 0.000000 0.000000 0.000000 -0.342750 -0.350799 9.149710 1.334273 0.435601 -28.148438 -1.301572 0.082704 30.522433 3.671195 0.395232 -35.907230 0.000000 0.000000 0.000000 -27.667132 1.917127 -3.143654 -43.580875 -9.114547 -4.384612 -11.785736 -26.412777 4.069708 0.000000 0.000000 0.000000 20.593073 -1.113015 -1.480966 53.509060 4.792939 -5.954078 11.712487 30.868594 4.700584 0.000000 0.000000 0.000000 
-0.021280 0.957135 -0.028064 -0.413296 0.964139 -1.420739 6.293311 0.102108 4.903050 -5.374238 0.551963 -2.049415 3.721347 10.818998 12.298411 0.000000 0.000000 0.000000 -2.369136 -0.263199 3.785210 2.842067 -0.342357 -2.275253 -3.985914 -13.025689 16.260911 0.000000 0.000000 0.000000 -0.295594 -0.353097 9.115797 1.239978 0.458670 -28.282119 -1.266340 0.139013 30.539162 3.573881 0.446949 -35.957836 0.000000 0.000000 0.000000 -27.570447 1.807919 -3.059252 -43.779316 -9.143735 -4.393946 -11.777279 -26.091972 4.016077 0.000000 0.000000 0.000000 20.583340 -1.060201 -1.447442 53.674928 4.937489 -5.908741 11.633547 30.650170 4.643691 0.000000 0.000000 0.000000 
-0.021277 0.957380 -0.027989 -0.444285 0.941418 -1.409638 6.418193 0.097060 4.950573 -5.535079 0.565129 -2.143205 3.702242 10.805981 12.393363 0.000000 0.000000 0.000000 -2.440899 -0.261989 3.818075 3.023240 -0.359402 -2.354918 -3.943568 -12.971829 16.367642 0.000000 0.000000 0.000000 -0.300310 -0.354599 9.162824 1.117964 0.483680 -28.287084 -1.223748 0.276872 30.472155 3.671114 0.429193 -36.033185 0.000000 0.000000 0.000000 -27.520075 1.686768 -3.026935 -43.873588 -9.029941 -4.416949 -11.755655 -25.581575 3.916550 0.000000 0.000000 0.000000 20.846223 -1.165143 -1.494564 53.828131 5.057125 -5.867515 11.238314 30.068318 4.446398 0.000000 0.000000 0.000000 
-0.021316 0.957478 -0.027957 -0.537393 1.012046 -1.279022 6.580788 0.079460 4.803905 -5.626766 0.571611 -2.158616 3.671251 10.765030 12.403936 0.000000 0.000000 0.000000 -2.390408 -0.257899 3.733709 3.133140 -0.370810 -2.449172 -3.959388 -13.003854 16.476024 0.000000 0.000000 0.000000 -0.302188 -0.351692 9.073045 0.951656 0.518475 -28.292805 -1.203667 0.296906 30.506590 3.672450 0.436508 -35.995950 0.000000 0.000000 0.000000 -27.568642 1.701752 -3.071110 -44.033222 -9.096290 -4.398188 -11.684296 -24.916822 3.787576 0.000000 0.000000 0.000000 20.906009 -1.198141 -1.497118 54.184151 5.158503 -5.855029 10.878493 29.489335 4.262941 0.000000 0.000000 0.000000 
-0.021357 0.957452 -0.027909 -0.615705 1.065324 -1.102673 6.704767 0.063189 4.634666 -5.685175 0.574624 -2.214217 3.657775 10.745652 12.395037 0.000000 0.000000 0.000000 -2.353466 -0.254257 3.670735 3.237725 -0.382687 -2.670133 -3.968581 -13.022081 16.562543 0.000000 0.000000 0.000000 -0.254259 -0.350661 8.933227 0.786970 0.553835 -28.336532 -1.202980 0.527863 30.596695 3.837684 0.402157 -36.028072 0.000000 0.000000 0.000000 -27.449706 1.627278 -3.108378 -44.188846 -9.110205 -4.381950 -11.614989 -24.326671 3.663873 0.000000 0.000000 0.000000 21.075470 -1.369194 -1.528084 54.354054 5.277001 -5.836489 10.582386 28.918939 4.113994 0.000000 0.000000 0.000000 
-0.021418 0.957340 -0.027799 -0.665077 1.028283 -0.974182 6.695849 0.061602 4.612799 -5.581930 0.563011 -2.399745 3.689367 10.790596 12.393098 0.000000 0.000000 0.000000 -2.361835 -0.250416 3.640605 3.353376 -0.394189 -2.863301 -3.938701 -12.978638 16.585632 0.000000 0.000000 0.000000 -0.184529 -0.353351 8.857632 0.450477 0.624313 -28.419675 -1.094828 0.758170 30.669109 3.865036 0.431868 -36.125504 0.000000 0.000000 0.000000 -27.159528 1.693689 -3.193347 -44.621193 -9.088931 -4.403978 -11.496862 -23.796287 3.547778 0.000000 0.000000 0.000000 21.030126 -1.652901 -1.627657 54.643891 5.366064 -5.830438 10.486977 28.375041 4.017791 0.000000 0.000000 0.000000 
-0.021510 0.957139 -0.027607 -0.711138 1.142671 -0.950963 6.765337 0.055830 4.642665 -5.583582 0.560085 -2.505817 3.641505 10.713826 12.329762 0.000000 0.000000 0.000000 -2.289412 -0.262329 3.729496 3.344280 -0.395965 -3.022482 -3.990629 -13.050930 16.588561 0.000000 0.000000 0.000000 -0.133869 -0.360620 8.910983 0.168810 0.682269 -28.415802 -1.090786 0.888946 30.661614 3.902852 0.457832 -36.240775 0.000000 0.000000 0.000000 -27.066718 1.728740 -3.283894 -44.930389 -9.067827 -4.409009 -11.374185 -23.239333 3.426330 0.000000 0.000000 0.000000 21.002229 -1.761819 -1.630057 54.941620 5.450060 -5.818879 10.599284 27.938751 3.987402 0.000000 0.000000 0.000000 
-0.021758 0.957009 -0.027432 -0.706869 1.121736 -0.913658 6.715546 0.059785 4.692426 -5.483256 0.549742 -2.636346 3.658985 10.736562 12.322575 0.000000 0.000000 0.000000 -2.251814 -0.263310 3.722868 3.297086 -0.392321 -3.066171 -3.990037 -13.045820 16.539743 0.000000 0.000000 0.000000 -0.151217 -0.356611 8.851888 0.042255 0.706234 -28.335989 -1.162029 0.990681 30.706333 3.801153 0.554137 -36.632967 0.000000 0.000000 0.000000 -27.144836 1.897091 -3.436376 -45.176956 -8.899934 -4.476958 -11.275619 -22.972444 3.364305 0.000000 0.000000 0.000000 20.811989 -1.793637 -1.608405 55.371810 5.555661 -5.805975 10.586247 27.718788 3.959099 0.000000 0.000000 0.000000 
-0.022240 0.957006 -0.027436 -0.728757 1.310036 -0.753085 6.738710 0.047549 4.551216 -5.398464 0.538440 -2.756010 3.576263 10.625645 12.334592 0.000000 0.000000 0.000000 -2.110931 -0.264073 3.637453 3.181820 -0.385376 -3.196560 -4.089899 -13.193246 16.596280 0.000000 0.000000 0.000000 -0.249754 -0.345000 8.744794 -0.010112 0.721636 -28.379700 -1.294120 0.973169 30.817521 3.772893 0.580858 -36.636019 0.000000 0.000000 0.000000 -27.219726 1.933644 -3.505105 -45.341046 -9.003632 -4.450608 -10.896293 -22.651448 3.237407 0.000000 0.000000 0.000000 20.779753 -1.782326 -1.568153 55.552354 5.679885 -5.772528 10.779108 27.607387 3.994704 0.000000 0.000000 0.000000 
-0.022946 0.957011 -0.027604 -0.774386 1.501816 -0.615571 6.759558 0.035371 4.401624 -5.238290 0.521593 -2.838315 3.499432 10.521710 12.336186 0.000000 0.000000 0.000000 -2.003691 -0.259955 3.514593 3.197489 -0.388398 -3.236709 -4.187035 -13.336401 16.648890 0.000000 0.000000 0.000000 -0.296693 -0.336796 8.608003 -0.161458 0.751216 -28.246778 -1.399299 0.880303 30.905815 3.738143 0.614393 -36.796686 0.000000 0.000000 0.000000 -27.294467 2.126748 -3.653143 -45.421094 -9.136788 -4.409023 -10.808343 -22.607140 3.214437 0.000000 0.000000 0.000000 20.745517 -1.790775 -1.560176 55.810063 5.855618 -5.714360 10.818988 27.451759 3.983317 0.000000 0.000000 0.000000 
-0.023785 0.956928 -0.027859 -0.782598 1.540685 -0.555981 6.769339 0.030993 4.338232 -5.140992 0.512424 -2.884687 3.489851 10.510662 12.344708 0.000000 0.000000 0.000000 -1.957157 -0.257309 3.456656 3.237017 -0.392298 -3.274823 -4.211806 -13.369011 16.622613 0.000000 0.000000 0.000000 -0.435995 -0.325817 8.610730 -0.159854 0.750598 -28.217705 -1.433246 0.905720 30.923689 3.692684 0.650008 -36.876899 0.000000 0.000000 0.000000 -27.378979 2.051847 -3.635174 -45.514198 -9.287604 -4.356793 -10.720967 -22.608175 3.196697 0.000000 0.000000 0.000000 20.580774 -1.728384 -1.498309 56.110559 5.944422 -5.692350 10.797549 27.520427 3.997856 0.000000 0.000000 0.000000 
-0.024597 0.956867 -0.027997 -0.793448 1.483617 -0.575874 6.707213 0.034187 4.277983 -4.929884 0.497880 -2.743896 3.537242 10.578109 12.328613 0.000000 0.000000 0.000000 -1.847506 -0.250765 3.323185 3.150762 -0.381849 -3.027641 -4.214630 -13.366809 16.511242 0.000000 0.000000 0.000000 -0.502470 -0.317303 8.537725 -0.142808 0.743212 -28.021389 -1.528201 1.087335 31.018560 3.719798 0.649635 -36.767519 0.000000 0.000000 0.000000 -27.517977 2.074668 -3.721517 -45.418002 -9.290738 -4.338912 -10.832981 -23.031424 3.279493 0.000000 0.000000 0.000000 20.612389 -1.666897 -1.421393 56.148176 6.040532 -5.668804 10.722013 27.616649 4.007989 0.000000 0.000000 0.000000 
-0.025276 0.956713 -0.028046 -0.775230 1.373410 -0.581808 6.670113 0.037522 4.239894 -4.843052 0.493072 -2.639348 3.604912 10.671009 12.311644 0.000000 0.000000 0.000000 -1.872598 -0.239346 3.213897 3.222935 -0.384982 -2.845949 -4.183187 -13.311383 16.377754 0.000000 0.000000 0.000000 -0.609347 -0.302962 8.403945 -0.103995 0.730689 -27.822460 -1.514193 1.087656 31.028440 3.471958 0.748456 -36.679527 0.000000 0.000000 0.000000 -27.814806 2.220295 -3.833599 -45.416557 -9.269529 -4.347581 -11.011509 -23.169487 3.342632 0.000000 0.000000 0.000000 20.343956 -1.540925 -1.352008 56.339565 5.991063 -5.697492 10.840646 27.793844 4.065247 0.000000 0.000000 0.000000 
